#!OML:ASF F:\VICON\USERDATA\INSTALL\rory3\rory3.ASF
:FULLY-SPECIFIED
:DEGREES
1065
root -1.1691 17.8388 10.4195 3.40897 -7.48215 2.48905
lowerback 2.15714 0.438427 -2.70849
upperback 0.254962 0.52971 0.91743
thorax -0.981128 0.2767 2.44456
lowerneck -14.7869 -1.47857 -11.4689
upperneck 32.4283 0.603135 1.88249
head 13.4229 -0.912339 2.82002
rclavicle -1.88348e-014 1.11319e-014
rhumerus -29.3048 -7.64152 -79.9391
rradius 29.8554
rwrist 22.5899
rhand -20.859 1.62184
rfingers 7.12502
rthumb 5.51047 -28.2865
lclavicle -1.88348e-014 1.11319e-014
lhumerus -33.8138 14.9966 79.9299
lradius 27.4226
lwrist -5.44563
lhand -14.9171 26.6727
lfingers 7.12502
lthumb 11.2447 56.3513
rfemur -9.68505 5.00487 20.7168
rtibia 27.6186
rfoot -16.5462 0.970712
rtoes 11.3862
lfemur -19.3231 -8.20041 -18.7541
ltibia 26.0821
lfoot -10.3329 -1.7457
ltoes -14.6479
1066
root -1.14814 17.846 10.4622 3.46539 -7.59204 2.62469
lowerback 2.07036 0.410117 -2.92412
upperback 0.227972 0.489256 0.926924
thorax -0.959545 0.25735 2.5773
lowerneck -14.7523 -1.72115 -11.709
upperneck 32.0737 0.267712 1.98473
head 13.2933 -1.0601 2.84231
rclavicle 7.15625e-015 5.56597e-015
rhumerus -29.2929 -7.66539 -79.8305
rradius 29.5682
rwrist 22.1884
rhand -21.2214 2.20004
rfingers 7.12502
rthumb 5.16062 -27.7171
lclavicle 7.15625e-015 5.56597e-015
lhumerus -33.8397 14.8863 80.0014
lradius 27.5851
lwrist -5.3886
lhand -14.8805 26.7281
lfingers 7.12502
lthumb 11.28 56.4048
rfemur -9.81832 5.32183 20.4303
rtibia 27.8992
rfoot -16.7939 1.02558
rtoes 12.3748
lfemur -18.758 -8.36483 -18.8797
ltibia 24.2954
lfoot -9.1203 -2.28094
ltoes -15.5125
1067
root -1.12619 17.8473 10.5043 3.54989 -7.66732 2.67331
lowerback 2.04763 0.384424 -3.04184
upperback 0.140618 0.452128 0.917503
thorax -1.03483 0.241701 2.6348
lowerneck -14.7758 -1.99771 -11.8257
upperneck 31.8598 -0.134008 2.06516
head 13.2428 -1.23154 2.82788
rclavicle -7.40473e-015 1.63003e-014
rhumerus -29.3822 -7.68799 -79.7797
rradius 29.2589
rwrist 21.6412
rhand -21.6493 2.92525
rfingers 7.12502
rthumb 4.74744 -27.0016
lclavicle -7.40473e-015 1.63003e-014
lhumerus -33.9439 14.6999 80.009
lradius 27.8068
lwrist -5.21654
lhand -14.6542 26.8953
lfingers 7.12502
lthumb 11.4982 56.5599
rfemur -9.90348 5.48 20.2498
rtibia 28.128
rfoot -16.9815 1.14229
rtoes 12.9707
lfemur -18.2737 -8.2852 -18.9664
ltibia 22.7336
lfoot -7.56642 -2.87911
ltoes -16.7949
1068
root -1.10135 17.8418 10.5481 3.63646 -7.67507 2.70373
lowerback 1.91567 0.338962 -3.06832
upperback 0.144715 0.394642 0.884472
thorax -0.952652 0.211569 2.61805
lowerneck -14.9824 -2.30601 -11.8183
upperneck 31.6454 -0.558208 2.04952
head 13.2336 -1.41074 2.75075
rclavicle -2.21645e-014 2.38542e-015
rhumerus -29.3668 -7.76369 -79.7596
rradius 29.0876
rwrist 21.415
rhand -21.722 3.26684
rfingers 7.12502
rthumb 4.67724 -26.6615
lclavicle -2.21645e-014 2.38542e-015
lhumerus -33.9474 14.564 80.0181
lradius 28.1018
lwrist -5.20213
lhand -14.5733 26.7581
lfingers 7.12502
lthumb 11.5762 56.4183
rfemur -9.91554 5.42687 20.1032
rtibia 28.2773
rfoot -17.2259 1.24475
rtoes 12.1764
lfemur -17.8905 -8.10173 -19.0954
ltibia 21.5174
lfoot -5.84981 -3.41837
ltoes -15.4661
1069
root -1.07683 17.8388 10.5935 3.68124 -7.73976 2.65396
lowerback 1.80315 0.316353 -3.04223
upperback 0.170995 0.368846 0.89803
thorax -0.860756 0.196687 2.61861
lowerneck -15.1746 -2.63474 -12.0686
upperneck 31.3627 -1.01807 2.27886
head 13.1986 -1.60083 2.80694
rclavicle 8.54774e-015 5.96354e-015
rhumerus -29.4427 -7.72363 -79.7001
rradius 29.0978
rwrist 21.392
rhand -21.815 3.39566
rfingers 7.12502
rthumb 4.58741 -26.5347
lclavicle 8.54774e-015 5.96354e-015
lhumerus -33.9588 14.4043 80.0629
lradius 28.4415
lwrist -5.23476
lhand -14.4178 26.8191
lfingers 7.12502
lthumb 11.7262 56.4709
rfemur -9.85337 5.51094 20.0532
rtibia 28.3706
rfoot -17.4374 1.33835
rtoes 11.7502
lfemur -17.5703 -7.56351 -19.2381
ltibia 20.7155
lfoot -4.21304 -3.86364
ltoes -12.3047
